<?xml version="1.0" encoding="UTF-8"?>
<svg xmlns="http://www.w3.org/2000/svg" xmlns:xlink="http://www.w3.org/1999/xlink" width="25px" height="25px" viewBox="0 0 25 25" version="1.1">
<g id="surface1">
<path style="fill:none;stroke-width:1.5;stroke-linecap:round;stroke-linejoin:miter;stroke:rgb(100%,75.294118%,79.607843%);stroke-opacity:1;stroke-miterlimit:4;" d="M 15 12 L 12 12 M 12 12 L 9 12 M 12 12 L 12 9 M 12 12 L 12 15 " transform="matrix(1.041667,0,0,1.041667,0,0)"/>
<path style="fill:none;stroke-width:1.5;stroke-linecap:round;stroke-linejoin:miter;stroke:rgb(100%,75.294118%,79.607843%);stroke-opacity:1;stroke-miterlimit:4;" d="M 22.00125 12 C 22.00125 16.71375 22.00125 19.0725 20.535 20.535 C 19.0725 22.00125 16.71375 22.00125 12 22.00125 C 7.28625 22.00125 4.9275 22.00125 3.465 20.535 C 1.99875 19.0725 1.99875 16.71375 1.99875 12 C 1.99875 7.28625 1.99875 4.9275 3.465 3.465 C 4.9275 1.99875 7.28625 1.99875 12 1.99875 C 16.71375 1.99875 19.0725 1.99875 20.535 3.465 C 21.51 4.44 21.83625 5.805 21.945 7.99875 " transform="matrix(1.041667,0,0,1.041667,0,0)"/>
</g>
</svg>
