<?xml version="1.0" encoding="UTF-8"?>
<svg xmlns="http://www.w3.org/2000/svg" xmlns:xlink="http://www.w3.org/1999/xlink" width="32px" height="32px" viewBox="0 0 32 32" version="1.1">
<g id="surface1">
<path style="fill:none;stroke-width:1.5;stroke-linecap:round;stroke-linejoin:miter;stroke:rgb(100%,75.294118%,79.607843%);stroke-opacity:1;stroke-miterlimit:4;" d="M 15 12 L 12 12 M 12 12 L 9 12 M 12 12 L 12 9 M 12 12 L 12 15 " transform="matrix(1.333333,0,0,1.333333,0,0)"/>
<path style="fill:none;stroke-width:1.5;stroke-linecap:round;stroke-linejoin:miter;stroke:rgb(100%,75.294118%,79.607843%);stroke-opacity:1;stroke-miterlimit:4;" d="M 21.999023 12 C 21.999023 16.713867 21.999023 19.072266 20.53418 20.53418 C 19.072266 21.999023 16.713867 21.999023 12 21.999023 C 7.286133 21.999023 4.927734 21.999023 3.46582 20.53418 C 2.000977 19.072266 2.000977 16.713867 2.000977 12 C 2.000977 7.286133 2.000977 4.927734 3.46582 3.46582 C 4.927734 2.000977 7.286133 2.000977 12 2.000977 C 16.713867 2.000977 19.072266 2.000977 20.53418 3.46582 C 21.509766 4.438477 21.834961 5.806641 21.946289 8.000977 " transform="matrix(1.333333,0,0,1.333333,0,0)"/>
</g>
</svg>
