<?xml version="1.0" encoding="UTF-8"?>
<svg xmlns="http://www.w3.org/2000/svg" xmlns:xlink="http://www.w3.org/1999/xlink" width="16px" height="16px" viewBox="0 0 16 16" version="1.1">
<g id="surface1">
<path style=" stroke:none;fill-rule:nonzero;fill:rgb(100%,75.294118%,79.607843%);fill-opacity:1;" d="M 12.855469 0.144531 C 12.660156 -0.0507812 12.34375 -0.0507812 12.148438 0.144531 L 10.5 1.792969 L 14.207031 5.5 L 15.855469 3.855469 C 15.949219 3.761719 16 3.632812 16 3.5 C 16 3.367188 15.949219 3.238281 15.855469 3.144531 Z M 13.5 6.207031 L 9.792969 2.5 L 3.292969 9 L 3.5 9 C 3.777344 9 4 9.222656 4 9.5 L 4 10 L 4.5 10 C 4.777344 10 5 10.222656 5 10.5 L 5 11 L 5.5 11 C 5.777344 11 6 11.222656 6 11.5 L 6 12 L 6.5 12 C 6.777344 12 7 12.222656 7 12.5 L 7 12.707031 Z M 6.03125 13.675781 C 6.011719 13.617188 6 13.558594 6 13.5 L 6 13 L 5.5 13 C 5.222656 13 5 12.777344 5 12.5 L 5 12 L 4.5 12 C 4.222656 12 4 11.777344 4 11.5 L 4 11 L 3.5 11 C 3.222656 11 3 10.777344 3 10.5 L 3 10 L 2.5 10 C 2.441406 10 2.382812 9.988281 2.324219 9.96875 L 2.144531 10.144531 C 2.097656 10.195312 2.0625 10.25 2.035156 10.3125 L 0.0351562 15.3125 C -0.0390625 15.5 0.00390625 15.710938 0.148438 15.851562 C 0.289062 15.996094 0.5 16.039062 0.6875 15.964844 L 5.6875 13.964844 C 5.75 13.9375 5.804688 13.902344 5.855469 13.855469 Z M 6.03125 13.675781 "/>
</g>
</svg>
